<svg width="512" height="512" version="1.1" xmlns="http://www.w3.org/2000/svg" desc="Created with imagetracer.js version 1.2.6" ><path fill="rgb(243,240,240)" stroke="rgb(243,240,240)" stroke-width="1" opacity="1" d="M 248.5 15 L 282.5 16 L 283.5 17 L 308.5 20 L 328.5 25 L 364.5 39 L 372.5 43 L 391 56 L 396 62.5 L 389 72 Q 386.3 70.9 387 73.5 L 363 104.5 L 350 126 Q 347.3 124.9 348 127.5 L 341 137.5 L 341 140 Q 338.3 138.9 339 141.5 L 285.5 228 Q 282.9 227.2 284 230.5 L 276.5 241 Q 273.7 239.7 276 238.5 L 334 117.5 L 337 114.5 L 340 106.5 L 356 79.5 L 376 50.5 L 370.5 45 L 356.5 38 L 329.5 28 L 310.5 23 L 294.5 20 L 278.5 19 L 277.5 18 L 245.5 18 L 244.5 19 L 226.5 20 L 205.5 24 Q 181.7 29.7 161.5 39 Q 112.3 61.8 79 100.5 Q 54.7 127.7 39 163.5 L 30 188.5 L 30 192.5 L 24 214.5 L 24 216.5 L 22 236.5 L 21 237.5 L 21 254.5 L 22.5 256 L 36.5 256 L 37.5 257 L 79.5 257 L 80.5 258 L 109.5 258 L 111.5 259 L 113.5 259 L 115 259.5 L 115 269 L 66.5 272 L 55.5 274 L 36.5 275 L 22.5 278 L 18 257.5 L 18 241.5 L 19 240.5 L 19 230.5 L 20 229.5 L 20 222.5 L 24 200.5 L 33 171.5 L 41 152.5 Q 62.7 108.2 97.5 77 Q 126.3 50.8 164.5 34 L 200.5 22 L 226.5 17 L 228.5 17 L 247.5 16 L 248.5 15 Z " /><path fill="rgb(243,240,240)" stroke="rgb(243,240,240)" stroke-width="1" opacity="1" d="M 145.5 260 L 164 260.5 L 157.5 267 L 143.5 267 L 142.5 268 L 140.5 268 L 138 267.5 L 145.5 260 Z " /><path fill="rgb(243,240,240)" stroke="rgb(243,240,240)" stroke-width="1" opacity="1" d="M 182 261 L 196 261 L 196 265.5 L 193.5 266 L 182 266 L 182 261 Z " /><path fill="rgb(243,240,240)" stroke="rgb(243,240,240)" stroke-width="1" opacity="1" d="M 343.5 319 L 344 374.5 L 343 374.5 L 343.5 319 Z " /><path fill="rgb(243,240,240)" stroke="rgb(243,240,240)" stroke-width="1" opacity="1" d="M 401.5 319 L 402 374.5 L 401 374.5 L 401.5 319 Z " /><path fill="rgb(243,240,240)" stroke="rgb(243,240,240)" stroke-width="1" opacity="1" d="M 416.5 319 L 417 374.5 L 416 374.5 L 416.5 319 Z " /><path fill="rgb(205,203,204)" stroke="rgb(205,203,204)" stroke-width="1" opacity="0.996078431372549" d="M 237.5 13 L 240 13.5 L 237.5 14 L 237.5 13 Z " /><path fill="rgb(205,203,204)" stroke="rgb(205,203,204)" stroke-width="1" opacity="0.996078431372549" d="M 277.5 13 L 280 13.5 L 277.5 14 L 277.5 13 Z " /><path fill="rgb(205,203,204)" stroke="rgb(205,203,204)" stroke-width="1" opacity="0.996078431372549" d="M 394.5 54 L 395.5 56 L 394.5 54 Z " /><path fill="rgb(205,203,204)" stroke="rgb(205,203,204)" stroke-width="1" opacity="0.996078431372549" d="M 397.5 56 Q 418.9 70.6 436 89.5 L 453 112.5 L 457 121.5 L 457 126.5 L 447 134.5 Q 447.8 136.8 445.5 136 L 394.5 175 L 327.5 221 L 322.5 224 L 298.5 226 L 300 223.5 L 302 220.5 L 331 189.5 L 337 181 Q 339.7 182.1 339 179.5 L 346 171 L 349 169.5 L 357.5 159 L 360 157.5 L 365.5 150 L 368 148.5 L 373 141 L 377 138.5 L 400 113.5 L 400 112 L 407 106.5 L 409 103.5 L 412 102 L 412 100.5 L 423.5 89 Q 425.8 89.8 425 87.5 L 425 85.5 L 422 82.5 L 421 79.5 L 411.5 69 L 408.5 67 L 397.5 56 Z " /><path fill="rgb(205,203,204)" stroke="rgb(205,203,204)" stroke-width="1" opacity="0.996078431372549" d="M 104.5 67 L 103.5 69 L 104.5 67 Z " /><path fill="rgb(205,203,204)" stroke="rgb(205,203,204)" stroke-width="1" opacity="0.996078431372549" d="M 97.5 73 L 96.5 75 L 97.5 73 Z " /><path fill="rgb(205,203,204)" stroke="rgb(205,203,204)" stroke-width="1" opacity="0.996078431372549" d="M 77.5 93 L 75.5 96 L 77.5 93 Z " /><path fill="rgb(205,203,204)" stroke="rgb(205,203,204)" stroke-width="1" opacity="0.996078431372549" d="M 197.5 162 L 267.5 233 L 197.5 162 Z " /><path fill="rgb(205,203,204)" stroke="rgb(205,203,204)" stroke-width="1" opacity="0.996078431372549" d="M 284.5 229 Q 291.8 234.2 295 242 L 283.5 248 L 280 244.5 L 281 243.5 L 282.5 241 Q 284.8 241.8 284 239.5 L 287 238 L 289 234.5 L 284.5 229 Z " /><path fill="rgb(205,203,204)" stroke="rgb(205,203,204)" stroke-width="1" opacity="0.996078431372549" d="M 15.5 240 L 16 243.5 L 15 243.5 L 15.5 240 Z " /><path fill="rgb(205,203,204)" stroke="rgb(205,203,204)" stroke-width="1" opacity="0.996078431372549" d="M 15.5 265 L 21 297.5 L 28.5 315 L 33.5 312 L 59.5 304 L 62.5 302 L 65.5 302 L 68.5 300 L 72.5 300 L 91.5 294 L 96.5 294 L 100.5 292 L 113.5 290 L 136.5 268 L 118.5 288 L 139.5 284 L 126 298.5 Q 122.5 302.5 124 311.5 L 127 318 Q 81.7 334.9 45.5 362 Q 30.7 346.8 24 323.5 L 17 291.5 L 15.5 265 Z " /><path fill="rgb(205,203,204)" stroke="rgb(205,203,204)" stroke-width="1" opacity="0.996078431372549" d="M 194.5 274 L 196 274.5 L 196 287.5 L 196.5 289 L 182.5 295 L 182 276 L 194.5 274 Z " /><path fill="rgb(205,203,204)" stroke="rgb(205,203,204)" stroke-width="1" opacity="0.996078431372549" d="M 462.5 328 L 463.5 330 L 462.5 328 Z " /><path fill="rgb(205,203,204)" stroke="rgb(205,203,204)" stroke-width="1" opacity="0.996078431372549" d="M 430.5 330 L 431 363.5 L 430 363.5 L 430.5 330 Z " /><path fill="rgb(205,203,204)" stroke="rgb(205,203,204)" stroke-width="1" opacity="0.996078431372549" d="M 448.5 333 L 450.5 336 L 448.5 333 Z " /><path fill="rgb(205,203,204)" stroke="rgb(205,203,204)" stroke-width="1" opacity="0.996078431372549" d="M 387.5 339 L 388 374.5 L 387 374.5 L 387.5 339 Z " /><path fill="rgb(205,203,204)" stroke="rgb(205,203,204)" stroke-width="1" opacity="0.996078431372549" d="M 450.5 358 L 448.5 361 L 450.5 358 Z " /><path fill="rgb(205,203,204)" stroke="rgb(205,203,204)" stroke-width="1" opacity="0.996078431372549" d="M 461.5 366 L 460.5 368 L 461.5 366 Z " /><path fill="rgb(26,25,25)" stroke="rgb(26,25,25)" stroke-width="1" opacity="0.11372549019607843" d="M 236.5 2 L 280.5 2 L 281.5 3 L 296.5 4 L 321.5 9 L 354.5 20 Q 413.6 44.9 452 90.5 Q 486 129 503 184.5 L 507 199.5 L 511 221.5 L 511 228.5 L 512 229.5 L 512 284.5 L 507 313.5 L 501 335.5 L 483 377.5 Q 462.3 415.8 431.5 444 Q 396.7 477.2 347.5 496 L 322.5 504 L 298.5 509 L 284.5 510 L 283.5 511 L 269.5 511 L 268.5 512 L 247.5 512 L 246.5 511 L 225.5 510 L 198.5 505 Q 173.8 498.7 152.5 489 Q 104.5 466.5 71 429.5 Q 36.8 393.2 18 341.5 L 11 318.5 L 6 292.5 L 5 274.5 L 4 273.5 L 4 239.5 L 5 238.5 L 5 228.5 L 6 227.5 L 8 208.5 L 13 187.5 L 27 149.5 Q 48.3 104.3 82.5 72 Q 113.5 42 155.5 23 L 175.5 15 L 195.5 9 L 220.5 4 L 235.5 3 L 236.5 2 Z M 243 12 L 242 13 L 232 13 L 231 14 L 224 14 L 207 17 Q 183 22 163 31 Q 125 47 97 73 Q 60 106 37 153 L 29 172 L 20 202 L 16 224 L 15 246 L 14 247 L 14 267 L 15 268 L 15 282 L 16 283 L 17 297 L 27 337 Q 46 389 80 427 Q 112 461 157 483 L 194 497 L 221 503 L 235 504 L 236 505 L 247 505 L 248 506 L 274 506 L 275 505 L 287 505 L 288 504 L 302 503 L 325 498 L 349 490 Q 397 471 432 437 Q 463 407 483 366 Q 493 345 499 322 L 504 297 L 505 281 L 506 280 L 506 241 L 505 240 L 504 223 L 498 195 L 493 179 Q 474 127 440 92 Q 405 54 355 31 Q 332 21 306 16 L 287 14 L 286 13 L 276 13 L 275 12 L 243 12 Z " /><path fill="rgb(250,248,247)" stroke="rgb(250,248,247)" stroke-width="1" opacity="1" d="M 253.5 20 L 285.5 21 L 286.5 22 L 300.5 23 L 313 26.5 L 301 61.5 L 291 104.5 L 286 137.5 L 284 143.5 L 284 150.5 L 281 163.5 L 281 169.5 L 278 181.5 L 278 188.5 L 274 209.5 L 274 215.5 L 271 227.5 L 271 234 L 269.5 234 L 197.5 162 L 196 162 L 196 247.5 L 192.5 248 L 182 245 L 181.5 243 L 178.5 244 L 166 241 L 173 230.5 L 173 221.5 L 172 218.5 L 115.5 162 L 115 224 L 84.5 214 L 32 192 Q 40.6 159.8 57 134.5 L 74 111.5 L 76 106.5 L 101.5 80 Q 134.6 50.1 180.5 33 L 218.5 23 L 228.5 23 L 237.5 21 L 252.5 21 L 253.5 20 Z " /><path fill="rgb(250,248,247)" stroke="rgb(250,248,247)" stroke-width="1" opacity="1" d="M 344 319 L 359.5 319 L 360 320.5 L 372.5 347 L 385 319 L 400.5 319 L 401 319.5 L 401 375 L 388 375 L 388 338.5 L 386 339.5 L 377 362 L 367.5 362 L 367 359.5 L 358 338 L 356 338.5 L 356 375 L 344 375 L 344 319 Z " /><path fill="rgb(250,248,247)" stroke="rgb(250,248,247)" stroke-width="1" opacity="1" d="M 417 319 L 447.5 320 Q 458.4 322.6 464 330.5 L 468 339.5 L 469 348.5 L 465 361.5 L 458.5 369 L 447.5 374 L 417 375 L 417 319 Z M 430 330 L 430 364 L 444 364 L 448 362 L 453 357 L 455 349 L 453 338 L 444 330 L 430 330 Z " /><path fill="rgb(0,0,0)" stroke="rgb(0,0,0)" stroke-width="1" opacity="0" d="M 0 0 L 512 0 L 512 228.5 L 511 228.5 L 510 214.5 L 503 184.5 Q 495.8 160.2 485 139.5 Q 461.1 93.9 423.5 62 Q 387.9 31.1 338.5 14 L 317.5 8 L 289.5 3 L 281.5 3 L 280.5 2 L 236.5 2 L 235.5 3 L 220.5 4 L 195.5 9 L 175.5 15 L 155.5 23 Q 107.7 44.7 74 80.5 Q 36.8 118.8 17 174.5 L 9 203.5 L 6 220.5 L 5 238.5 L 4 239.5 L 4 273.5 L 5 274.5 L 5 284.5 L 6 285.5 L 7 299.5 L 11 318.5 L 18 341.5 L 26 361.5 Q 48.6 410.9 86.5 445 Q 117.6 473.9 159.5 492 L 198.5 505 L 225.5 510 L 247 511.5 L 0 512 L 0 0 Z " /><path fill="rgb(0,0,0)" stroke="rgb(0,0,0)" stroke-width="1" opacity="0" d="M 511.5 285 L 512 512 L 269 511.5 L 291.5 510 L 318.5 505 Q 344.4 498.4 366.5 488 Q 413.2 465.7 446 429.5 Q 472.5 401 490 363.5 L 504 325.5 L 510 298.5 L 511.5 285 Z " /><path fill="rgb(250,246,246)" stroke="rgb(250,246,246)" stroke-width="1" opacity="1" d="M 245.5 18 L 277.5 18 L 278.5 19 L 294.5 20 L 310.5 23 L 329.5 28 L 356.5 38 L 370.5 45 L 376 50.5 L 356 79.5 L 340 106.5 L 337 114.5 L 334 117.5 L 276 239 L 270 234.5 L 274 215.5 L 274 209.5 L 278 188.5 L 278 181.5 L 281 169.5 L 281 163.5 L 284 150.5 L 284 143.5 L 286 137.5 L 291 104.5 L 301 61.5 L 313 26.5 L 310.5 25 L 293.5 22 L 286.5 22 L 285.5 21 L 253.5 20 L 252.5 21 L 237.5 21 L 236.5 22 L 218.5 23 L 208.5 25 Q 185.2 30.2 165.5 39 Q 115.8 61.3 82 99.5 L 67 119.5 L 50 146.5 L 36 177.5 L 32 192 L 84.5 214 L 115 224 L 115 258.5 L 113.5 259 L 111.5 259 L 109.5 258 L 80.5 258 L 79.5 257 L 37.5 257 L 36.5 256 L 22.5 256 L 21 254.5 L 21 237.5 L 25 215.5 L 25 213.5 L 26 204.5 L 33 179.5 L 39 163.5 L 50 141.5 Q 71.3 104.3 102.5 77 Q 130.9 51.9 168.5 36 L 205.5 24 L 226.5 20 L 244.5 19 L 245.5 18 Z " /><path fill="rgb(250,246,246)" stroke="rgb(250,246,246)" stroke-width="1" opacity="1" d="M 165.5 240 L 180 244.5 L 164.5 260 L 146.5 260 L 165.5 240 Z " /><path fill="rgb(250,246,246)" stroke="rgb(250,246,246)" stroke-width="1" opacity="1" d="M 182 245 L 196 248 L 196 261 L 182 261 L 182 245 Z " /><path fill="rgb(49,46,47)" stroke="rgb(49,46,47)" stroke-width="1" opacity="0.611764705882353" d="M 242.5 12 L 245 12.5 L 242.5 13 L 242.5 12 Z " /><path fill="rgb(49,46,47)" stroke="rgb(49,46,47)" stroke-width="1" opacity="0.611764705882353" d="M 272.5 12 L 275 12.5 L 272.5 13 L 272.5 12 Z " /><path fill="rgb(49,46,47)" stroke="rgb(49,46,47)" stroke-width="1" opacity="0.611764705882353" d="M 385.5 47 L 386.5 49 L 385.5 47 Z " /><path fill="rgb(49,46,47)" stroke="rgb(49,46,47)" stroke-width="1" opacity="0.611764705882353" d="M 397.5 55 L 398.5 57 L 397.5 55 Z " /><path fill="rgb(49,46,47)" stroke="rgb(49,46,47)" stroke-width="1" opacity="0.611764705882353" d="M 116.5 57 L 115.5 59 L 116.5 57 Z " /><path fill="rgb(49,46,47)" stroke="rgb(49,46,47)" stroke-width="1" opacity="0.611764705882353" d="M 400.5 57 L 401.5 59 L 400.5 57 Z " /><path fill="rgb(49,46,47)" stroke="rgb(49,46,47)" stroke-width="1" opacity="0.611764705882353" d="M 404.5 60 L 405.5 62 L 404.5 60 Z " /><path fill="rgb(49,46,47)" stroke="rgb(49,46,47)" stroke-width="1" opacity="0.611764705882353" d="M 108.5 63 L 107.5 65 L 108.5 63 Z " /><path fill="rgb(49,46,47)" stroke="rgb(49,46,47)" stroke-width="1" opacity="0.611764705882353" d="M 408.5 63 L 409.5 65 L 408.5 63 Z " /><path fill="rgb(49,46,47)" stroke="rgb(49,46,47)" stroke-width="1" opacity="0.611764705882353" d="M 103.5 67 L 101.5 70 L 103.5 67 Z " /><path fill="rgb(49,46,47)" stroke="rgb(49,46,47)" stroke-width="1" opacity="0.611764705882353" d="M 413.5 67 L 416.5 71 L 413.5 67 Z " /><path fill="rgb(49,46,47)" stroke="rgb(49,46,47)" stroke-width="1" opacity="0.611764705882353" d="M 419.5 72 L 440 91.5 Q 474.3 127.2 493 178.5 L 498 194.5 L 504 222.5 L 505 239.5 L 506 240.5 L 506 279.5 L 505 280.5 L 504 296.5 L 499 321.5 Q 492.6 345.1 483 365.5 Q 462.9 406.9 431.5 437 Q 397.4 470.9 348.5 490 L 324.5 498 L 301.5 503 L 287.5 504 L 286.5 505 L 274.5 505 L 273.5 506 L 247.5 506 L 246.5 505 L 235.5 505 L 234.5 504 L 220.5 503 L 193.5 497 L 156.5 483 Q 111.6 461.4 80 426.5 Q 54.3 399.2 38 362.5 L 39 362.5 Q 59.5 406.5 93.5 437 Q 127.5 469 175.5 487 L 194.5 493 L 223.5 499 L 241.5 500 L 242.5 501 L 274.5 501 L 275.5 500 L 293.5 499 L 314.5 495 L 341.5 487 L 358.5 480 Q 405.3 458.3 438 422.5 Q 469.8 388.3 488 340.5 L 497 309.5 L 501 286.5 L 501 277.5 L 502 276.5 L 502 237.5 L 501 236.5 L 501 227.5 L 500 226.5 L 499 213.5 L 494 191.5 L 480 153.5 Q 460.1 111.4 428.5 81 L 419.5 72 Z " /><path fill="rgb(49,46,47)" stroke="rgb(49,46,47)" stroke-width="1" opacity="0.611764705882353" d="M 96.5 73 L 92.5 78 L 96.5 73 Z " /><path fill="rgb(49,46,47)" stroke="rgb(49,46,47)" stroke-width="1" opacity="0.611764705882353" d="M 80.5 89 L 76.5 94 L 80.5 89 Z " /><path fill="rgb(49,46,47)" stroke="rgb(49,46,47)" stroke-width="1" opacity="0.611764705882353" d="M 71.5 99 L 70.5 101 L 71.5 99 Z " /><path fill="rgb(49,46,47)" stroke="rgb(49,46,47)" stroke-width="1" opacity="0.611764705882353" d="M 67.5 104 L 66.5 106 L 67.5 104 Z " /><path fill="rgb(49,46,47)" stroke="rgb(49,46,47)" stroke-width="1" opacity="0.611764705882353" d="M 15.5 232 L 16 234.5 L 15 234.5 L 15.5 232 Z " /><path fill="rgb(49,46,47)" stroke="rgb(49,46,47)" stroke-width="1" opacity="0.611764705882353" d="M 14.5 246 L 15 255.5 L 14 255.5 L 14.5 246 Z " /><path fill="rgb(49,46,47)" stroke="rgb(49,46,47)" stroke-width="1" opacity="0.611764705882353" d="M 14.5 258 L 15 266.5 L 14 266.5 L 14.5 258 Z " /><path fill="rgb(49,46,47)" stroke="rgb(49,46,47)" stroke-width="1" opacity="0.611764705882353" d="M 15.5 278 L 16 281.5 L 15 281.5 L 15.5 278 Z " /><path fill="rgb(229,226,226)" stroke="rgb(229,226,226)" stroke-width="1" opacity="0.996078431372549" d="M 240.5 13 L 276.5 13 L 277.5 14 L 286.5 14 L 287.5 15 L 306.5 17 L 326.5 22 Q 354 30 376.5 43 L 392.5 53 L 410 67 Q 408.9 69.7 411.5 69 L 425 85.5 L 425 87.5 Q 425.8 89.8 423.5 89 L 412 100.5 L 412 102 L 409 103.5 L 407 106.5 L 400 112 L 400 113.5 L 374.5 141 Q 372.3 140.3 373 142.5 L 366.5 150 L 364 151.5 L 358.5 159 L 355 161.5 L 347.5 171 Q 345.3 170.3 346 172.5 L 339 181 Q 336.3 179.9 337 182.5 L 309 212.5 L 302 222 Q 299.3 220.9 300 223.5 L 296.5 227 Q 289.7 225.7 286.5 228 L 287 226.5 L 339 140 Q 342 141.3 341 137.5 L 348 126 Q 350.7 127.1 350 124.5 L 387 72 Q 389.7 73.1 389 70.5 L 396 62.5 L 391 56 L 372.5 43 L 364.5 39 L 328.5 25 L 308.5 20 L 283.5 17 L 282.5 16 L 248.5 15 L 247.5 16 L 236.5 16 L 227.5 18 L 225.5 17 L 200.5 22 L 174.5 30 L 140.5 46 Q 105.7 65.7 80 94.5 Q 53 124 36 163.5 L 27 189.5 L 22 209.5 L 20 229.5 L 19 230.5 L 19 240.5 L 18 241.5 L 18 257.5 L 22.5 278 L 36.5 275 L 45.5 275 L 46.5 274 L 55.5 274 L 66.5 272 L 115 269 L 115 288.5 L 113.5 290 L 109.5 290 L 96.5 294 L 83.5 296 L 72.5 300 L 68.5 300 L 65.5 302 L 62.5 302 L 59.5 304 L 33.5 312 L 28.5 315 L 24 306.5 L 18 283.5 L 16 265.5 L 15 264.5 L 15 244.5 L 16 243.5 L 17 223.5 L 21 201.5 L 31 168.5 L 37 154.5 Q 59.1 107.6 95.5 75 Q 124.3 48.8 162.5 32 L 201.5 19 L 229.5 14 L 239.5 14 L 240.5 13 Z " /><path fill="rgb(229,226,226)" stroke="rgb(229,226,226)" stroke-width="1" opacity="0.996078431372549" d="M 284.5 230 L 289 234.5 L 287 236.5 Q 287.8 238.8 285.5 238 L 284 241 L 281 242.5 Q 281.8 244.8 279.5 244 L 277 240.5 L 284.5 230 Z " /><path fill="rgb(229,226,226)" stroke="rgb(229,226,226)" stroke-width="1" opacity="0.996078431372549" d="M 169.5 235 L 138.5 268 L 141.5 267 L 143.5 267 L 157 267.5 L 140.5 284 L 117.5 289 L 137 268.5 L 169.5 235 Z " /><path fill="rgb(229,226,226)" stroke="rgb(229,226,226)" stroke-width="1" opacity="0.996078431372549" d="M 194.5 265 L 196 266.5 L 196 274 L 182 276 L 182 266 L 193.5 266 L 194.5 265 Z " /><path fill="rgb(229,226,226)" stroke="rgb(229,226,226)" stroke-width="1" opacity="0.996078431372549" d="M 460.5 326 L 461.5 328 L 460.5 326 Z " /><path fill="rgb(229,226,226)" stroke="rgb(229,226,226)" stroke-width="1" opacity="0.996078431372549" d="M 356.5 338 L 357 374.5 L 356 374.5 L 356.5 338 Z " /><path fill="rgb(229,226,226)" stroke="rgb(229,226,226)" stroke-width="1" opacity="0.996078431372549" d="M 387.5 338 L 386.5 340 L 387.5 338 Z " /><path fill="rgb(40,34,33)" stroke="rgb(40,34,33)" stroke-width="1" opacity="1" d="M 115 163 L 116.5 163 L 170 216.5 L 173 223.5 L 173 227.5 L 170 234.5 L 116.5 288 L 115 287.5 L 115 163 Z " /><path fill="rgb(40,34,33)" stroke="rgb(40,34,33)" stroke-width="1" opacity="1" d="M 197.5 163 L 267.5 234 Q 265.3 233.3 266 235.5 L 217 323.5 L 260.5 368 L 206 312.5 L 198 294.5 L 196 279.5 L 197 278.5 L 197.5 163 Z " /><path fill="rgb(40,34,33)" stroke="rgb(40,34,33)" stroke-width="1" opacity="1" d="M 422.5 212 L 427 212.5 L 422.5 213 L 422.5 212 Z " /><path fill="rgb(40,34,33)" stroke="rgb(40,34,33)" stroke-width="1" opacity="1" d="M 414.5 213 L 418 213.5 L 414.5 214 L 414.5 213 Z " /><path fill="rgb(40,34,33)" stroke="rgb(40,34,33)" stroke-width="1" opacity="1" d="M 405.5 214 L 409 214.5 L 405.5 215 L 405.5 214 Z " /><path fill="rgb(40,34,33)" stroke="rgb(40,34,33)" stroke-width="1" opacity="1" d="M 433.5 214 L 352.5 296 L 284 228.5 L 286 228 L 286 229.5 L 351.5 295 L 433.5 214 Z " /><path fill="rgb(40,34,33)" stroke="rgb(40,34,33)" stroke-width="1" opacity="1" d="M 396.5 215 L 400 215.5 L 396.5 216 L 396.5 215 Z " /><path fill="rgb(40,34,33)" stroke="rgb(40,34,33)" stroke-width="1" opacity="1" d="M 387.5 216 L 392 216.5 L 387.5 217 L 387.5 216 Z " /><path fill="rgb(40,34,33)" stroke="rgb(40,34,33)" stroke-width="1" opacity="1" d="M 378.5 217 L 383 217.5 L 378.5 218 L 378.5 217 Z " /><path fill="rgb(40,34,33)" stroke="rgb(40,34,33)" stroke-width="1" opacity="1" d="M 370.5 218 L 374 218.5 L 370.5 219 L 370.5 218 Z " /><path fill="rgb(40,34,33)" stroke="rgb(40,34,33)" stroke-width="1" opacity="1" d="M 361.5 219 L 365 219.5 L 361.5 220 L 361.5 219 Z " /><path fill="rgb(40,34,33)" stroke="rgb(40,34,33)" stroke-width="1" opacity="1" d="M 352.5 220 L 356 220.5 L 352.5 221 L 352.5 220 Z " /><path fill="rgb(40,34,33)" stroke="rgb(40,34,33)" stroke-width="1" opacity="1" d="M 343.5 221 L 348 221.5 L 343.5 222 L 343.5 221 Z " /><path fill="rgb(40,34,33)" stroke="rgb(40,34,33)" stroke-width="1" opacity="1" d="M 334.5 222 L 339 222.5 L 334.5 223 L 334.5 222 Z " /><path fill="rgb(40,34,33)" stroke="rgb(40,34,33)" stroke-width="1" opacity="1" d="M 326.5 223 L 330 223.5 L 326.5 224 L 326.5 223 Z " /><path fill="rgb(40,34,33)" stroke="rgb(40,34,33)" stroke-width="1" opacity="1" d="M 317.5 224 L 321 224.5 L 317.5 225 L 317.5 224 Z " /><path fill="rgb(40,34,33)" stroke="rgb(40,34,33)" stroke-width="1" opacity="1" d="M 308.5 225 L 313 225.5 L 308.5 226 L 308.5 225 Z " /><path fill="rgb(40,34,33)" stroke="rgb(40,34,33)" stroke-width="1" opacity="1" d="M 300.5 226 L 304 226.5 L 300.5 227 L 300.5 226 Z " /><path fill="rgb(40,34,33)" stroke="rgb(40,34,33)" stroke-width="1" opacity="1" d="M 291.5 227 L 295 227.5 L 291.5 228 L 291.5 227 Z " /><path fill="rgb(40,34,33)" stroke="rgb(40,34,33)" stroke-width="1" opacity="1" d="M 181.5 244 L 182 369.5 L 126 314.5 Q 123.3 311.2 124 304.5 L 126 299.5 L 181.5 244 Z " /><path fill="rgb(40,34,33)" stroke="rgb(40,34,33)" stroke-width="1" opacity="1" d="M 331.5 297 L 332.5 299 L 331.5 297 Z " /><path fill="rgb(40,34,33)" stroke="rgb(40,34,33)" stroke-width="1" opacity="1" d="M 334.5 303 L 335 310.5 L 334 310.5 L 334.5 303 Z " /><path fill="rgb(40,34,33)" stroke="rgb(40,34,33)" stroke-width="1" opacity="1" d="M 332.5 315 L 331.5 317 L 332.5 315 Z " /><path fill="rgb(40,34,33)" stroke="rgb(40,34,33)" stroke-width="1" opacity="1" d="M 322.5 325 L 280.5 368 L 322.5 325 Z " /><path fill="rgb(40,34,33)" stroke="rgb(40,34,33)" stroke-width="1" opacity="1" d="M 267.5 370 L 275 370.5 L 267.5 371 L 267.5 370 Z " /><path fill="rgb(7,4,5)" stroke="rgb(7,4,5)" stroke-width="1" opacity="1" d="M 427.5 212 Q 434.5 210.5 434 213.5 L 351.5 295 L 286 229.5 L 286 228 L 312.5 226 L 313.5 225 L 329.5 224 L 330.5 223 L 338.5 223 L 339.5 222 L 347.5 222 L 348.5 221 L 373.5 219 L 374.5 218 L 382.5 218 L 383.5 217 L 391.5 217 L 392.5 216 L 417.5 214 L 418.5 213 L 426.5 213 L 427.5 212 Z " /><path fill="rgb(7,4,5)" stroke="rgb(7,4,5)" stroke-width="1" opacity="1" d="M 266 234 L 268.5 234 L 331 296.5 Q 336.1 300.9 334 312.5 L 323.5 325 L 278.5 369 Q 273.8 371.3 265.5 370 L 261.5 368 L 217 323.5 L 258 251.5 L 266 234 Z " /><path fill="rgb(162,160,162)" stroke="rgb(162,160,162)" stroke-width="1" opacity="0.9882352941176471" d="M 245.5 12 L 251 12.5 L 245.5 13 L 245.5 12 Z " /><path fill="rgb(162,160,162)" stroke="rgb(162,160,162)" stroke-width="1" opacity="0.9882352941176471" d="M 266.5 12 L 272 12.5 L 266.5 13 L 266.5 12 Z " /><path fill="rgb(162,160,162)" stroke="rgb(162,160,162)" stroke-width="1" opacity="0.9882352941176471" d="M 232.5 13 L 235 13.5 L 232.5 14 L 232.5 13 Z " /><path fill="rgb(162,160,162)" stroke="rgb(162,160,162)" stroke-width="1" opacity="0.9882352941176471" d="M 410.5 65 L 411.5 67 L 410.5 65 Z " /><path fill="rgb(162,160,162)" stroke="rgb(162,160,162)" stroke-width="1" opacity="0.9882352941176471" d="M 100.5 70 L 99.5 72 L 100.5 70 Z " /><path fill="rgb(162,160,162)" stroke="rgb(162,160,162)" stroke-width="1" opacity="0.9882352941176471" d="M 417.5 71 L 418.5 73 L 417.5 71 Z " /><path fill="rgb(162,160,162)" stroke="rgb(162,160,162)" stroke-width="1" opacity="0.9882352941176471" d="M 91.5 78 L 87.5 83 L 91.5 78 Z " /><path fill="rgb(162,160,162)" stroke="rgb(162,160,162)" stroke-width="1" opacity="0.9882352941176471" d="M 428.5 81 L 432.5 86 L 428.5 81 Z " /><path fill="rgb(162,160,162)" stroke="rgb(162,160,162)" stroke-width="1" opacity="0.9882352941176471" d="M 85.5 84 L 81.5 89 L 85.5 84 Z " /><path fill="rgb(162,160,162)" stroke="rgb(162,160,162)" stroke-width="1" opacity="0.9882352941176471" d="M 440.5 94 L 442.5 97 L 440.5 94 Z " /><path fill="rgb(162,160,162)" stroke="rgb(162,160,162)" stroke-width="1" opacity="0.9882352941176471" d="M 73.5 97 L 72.5 99 L 73.5 97 Z " /><path fill="rgb(162,160,162)" stroke="rgb(162,160,162)" stroke-width="1" opacity="0.9882352941176471" d="M 446.5 101 L 447.5 103 L 446.5 101 Z " /><path fill="rgb(162,160,162)" stroke="rgb(162,160,162)" stroke-width="1" opacity="0.9882352941176471" d="M 450.5 106 L 451.5 108 L 450.5 106 Z " /><path fill="rgb(162,160,162)" stroke="rgb(162,160,162)" stroke-width="1" opacity="0.9882352941176471" d="M 453.5 110 L 454.5 112 L 453.5 110 Z " /><path fill="rgb(162,160,162)" stroke="rgb(162,160,162)" stroke-width="1" opacity="0.9882352941176471" d="M 456.5 114 L 457.5 116 L 456.5 114 Z " /><path fill="rgb(162,160,162)" stroke="rgb(162,160,162)" stroke-width="1" opacity="0.9882352941176471" d="M 458.5 117 L 459.5 119 L 458.5 117 Z " /><path fill="rgb(162,160,162)" stroke="rgb(162,160,162)" stroke-width="1" opacity="0.9882352941176471" d="M 460.5 120 L 461.5 122 L 460.5 120 Z " /><path fill="rgb(162,160,162)" stroke="rgb(162,160,162)" stroke-width="1" opacity="0.9882352941176471" d="M 462.5 123 L 463.5 125 L 462.5 123 Z " /><path fill="rgb(162,160,162)" stroke="rgb(162,160,162)" stroke-width="1" opacity="0.9882352941176471" d="M 465.5 128 L 466.5 130 L 465.5 128 Z " /><path fill="rgb(162,160,162)" stroke="rgb(162,160,162)" stroke-width="1" opacity="0.9882352941176471" d="M 468.5 133 L 471 136.5 L 469 135.5 L 468.5 133 Z " /><path fill="rgb(162,160,162)" stroke="rgb(162,160,162)" stroke-width="1" opacity="0.9882352941176471" d="M 471.5 138 L 486 167.5 L 494 191.5 L 498 208.5 L 500 226.5 L 501 227.5 L 501 236.5 L 502 237.5 L 502 276.5 L 501 277.5 L 501 286.5 L 500 287.5 L 499 299.5 L 493 325.5 L 481 357.5 Q 459.3 404.3 423.5 437 Q 389.5 469 341.5 487 L 318.5 494 L 293.5 499 L 275.5 500 L 274.5 501 L 242.5 501 L 241.5 500 L 223.5 499 L 202.5 495 Q 178.6 489.4 158.5 480 Q 111.7 458.3 79 422.5 Q 60.7 402.8 47 378.5 L 51 381.5 L 53 386 Q 55.7 384.9 55 387.5 Q 75.5 419 103.5 443 Q 138.1 473.4 187.5 489 L 206.5 494 L 222.5 497 L 229.5 497 L 230.5 498 L 239.5 498 L 240.5 499 L 276.5 499 L 277.5 498 L 286.5 498 L 287.5 497 L 300.5 496 L 322.5 491 L 358.5 478 Q 406.9 455.4 440 417.5 L 458 394.5 Q 463.2 388.4 465 380 L 460.5 380 L 449.5 384 L 423.5 384 L 416 378.5 L 413.5 374 L 411 375.5 L 406.5 382 Q 402.9 384.9 395.5 384 L 388 378.5 L 386 372.5 L 383.5 370 L 372.5 371 L 368.5 370 L 365 377.5 L 359.5 383 L 351.5 384 L 345 381 L 342 374.5 L 342 327.5 L 343 327.5 L 343 374.5 L 343.5 375 L 357 375 L 357.5 340 L 367.5 362 L 377.5 362 L 378 359.5 L 386.5 340 L 387 375 L 401.5 375 L 402 374.5 L 402 319 L 391 318.5 L 402.5 318 L 409 322.5 L 412.5 328 L 415 326.5 L 415.5 325 L 416 375 L 445.5 375 L 450.5 374 L 463 365.5 L 469 353.5 L 469 339.5 Q 465.9 328.6 457.5 323 L 446.5 319 L 423 318.5 L 449.5 318 Q 464.3 320.7 472 330.5 L 476 337.5 L 478 347.5 L 479.5 349 L 483 346.5 L 491 325.5 L 498 294.5 L 499 279.5 L 500 278.5 L 500 235.5 L 499 234.5 L 498 218.5 L 491 187.5 Q 484.7 165.8 474 148.5 L 474 146.5 L 471.5 138 Z " /><path fill="rgb(162,160,162)" stroke="rgb(162,160,162)" stroke-width="1" opacity="0.9882352941176471" d="M 196.5 162 L 197 278.5 L 196 278.5 L 196.5 162 Z " /><path fill="rgb(162,160,162)" stroke="rgb(162,160,162)" stroke-width="1" opacity="0.9882352941176471" d="M 429.5 211 L 434 211.5 L 429.5 212 L 429.5 211 Z " /><path fill="rgb(162,160,162)" stroke="rgb(162,160,162)" stroke-width="1" opacity="0.9882352941176471" d="M 411.5 213 L 414 213.5 L 411.5 214 L 411.5 213 Z " /><path fill="rgb(162,160,162)" stroke="rgb(162,160,162)" stroke-width="1" opacity="0.9882352941176471" d="M 402.5 214 L 405 214.5 L 402.5 215 L 402.5 214 Z " /><path fill="rgb(162,160,162)" stroke="rgb(162,160,162)" stroke-width="1" opacity="0.9882352941176471" d="M 433.5 215 L 359.5 290 L 433.5 215 Z " /><path fill="rgb(162,160,162)" stroke="rgb(162,160,162)" stroke-width="1" opacity="0.9882352941176471" d="M 367.5 218 L 370 218.5 L 367.5 219 L 367.5 218 Z " /><path fill="rgb(162,160,162)" stroke="rgb(162,160,162)" stroke-width="1" opacity="0.9882352941176471" d="M 358.5 219 L 361 219.5 L 358.5 220 L 358.5 219 Z " /><path fill="rgb(162,160,162)" stroke="rgb(162,160,162)" stroke-width="1" opacity="0.9882352941176471" d="M 323.5 223 L 326 223.5 L 323.5 224 L 323.5 223 Z " /><path fill="rgb(162,160,162)" stroke="rgb(162,160,162)" stroke-width="1" opacity="0.9882352941176471" d="M 297.5 226 L 300 226.5 L 297.5 227 L 297.5 226 Z " /><path fill="rgb(162,160,162)" stroke="rgb(162,160,162)" stroke-width="1" opacity="0.9882352941176471" d="M 298.5 243 L 351.5 297 L 298.5 243 Z " /><path fill="rgb(162,160,162)" stroke="rgb(162,160,162)" stroke-width="1" opacity="0.9882352941176471" d="M 180.5 244 L 127.5 298 L 180.5 244 Z " /><path fill="rgb(162,160,162)" stroke="rgb(162,160,162)" stroke-width="1" opacity="0.9882352941176471" d="M 279.5 244 L 331.5 297 L 279.5 244 Z " /><path fill="rgb(162,160,162)" stroke="rgb(162,160,162)" stroke-width="1" opacity="0.9882352941176471" d="M 15.5 275 L 16 277.5 L 15 277.5 L 15.5 275 Z " /><path fill="rgb(162,160,162)" stroke="rgb(162,160,162)" stroke-width="1" opacity="0.9882352941176471" d="M 196.5 284 L 197 286.5 L 196 286.5 L 196.5 284 Z " /><path fill="rgb(162,160,162)" stroke="rgb(162,160,162)" stroke-width="1" opacity="0.9882352941176471" d="M 16.5 285 L 17 287.5 L 16 287.5 L 16.5 285 Z " /><path fill="rgb(162,160,162)" stroke="rgb(162,160,162)" stroke-width="1" opacity="0.9882352941176471" d="M 207.5 314 L 208.5 316 L 207.5 314 Z " /><path fill="rgb(162,160,162)" stroke="rgb(162,160,162)" stroke-width="1" opacity="0.9882352941176471" d="M 127.5 316 L 181.5 371 L 127.5 316 Z " /><path fill="rgb(162,160,162)" stroke="rgb(162,160,162)" stroke-width="1" opacity="0.9882352941176471" d="M 331.5 317 L 282.5 367 L 331.5 317 Z " /><path fill="rgb(162,160,162)" stroke="rgb(162,160,162)" stroke-width="1" opacity="0.9882352941176471" d="M 350.5 318 L 361.5 318 L 371 325.5 L 375.5 332 L 378.5 331 L 378 332.5 L 372.5 346 L 361 319 L 350.5 319 L 350.5 318 Z " /><path fill="rgb(162,160,162)" stroke="rgb(162,160,162)" stroke-width="1" opacity="0.9882352941176471" d="M 431 330 Q 446.2 328.5 452 337.5 L 454 344.5 L 454 349.5 Q 452.8 357.3 447.5 361 L 443.5 363 L 431 364 L 431 330 Z M 443 342 L 440 347 L 441 359 L 445 361 L 448 360 L 452 353 L 450 345 Q 448 341 443 342 Z " /><path fill="rgb(162,160,162)" stroke="rgb(162,160,162)" stroke-width="1" opacity="0.9882352941176471" d="M 44.5 373 L 47 376.5 L 45 375.5 L 44.5 373 Z " /><path fill="rgb(174,172,174)" stroke="rgb(174,172,174)" stroke-width="1" opacity="0.996078431372549" d="M 251.5 12 L 266 12.5 L 251.5 13 L 251.5 12 Z " /><path fill="rgb(174,172,174)" stroke="rgb(174,172,174)" stroke-width="1" opacity="0.996078431372549" d="M 419.5 73 L 421.5 76 L 419.5 73 Z " /><path fill="rgb(174,172,174)" stroke="rgb(174,172,174)" stroke-width="1" opacity="0.996078431372549" d="M 436.5 90 L 439.5 94 L 436.5 90 Z " /><path fill="rgb(174,172,174)" stroke="rgb(174,172,174)" stroke-width="1" opacity="0.996078431372549" d="M 443.5 98 L 445.5 101 L 443.5 98 Z " /><path fill="rgb(174,172,174)" stroke="rgb(174,172,174)" stroke-width="1" opacity="0.996078431372549" d="M 448.5 104 L 449.5 106 L 448.5 104 Z " /><path fill="rgb(174,172,174)" stroke="rgb(174,172,174)" stroke-width="1" opacity="0.996078431372549" d="M 451.5 108 L 452.5 110 L 451.5 108 Z " /><path fill="rgb(174,172,174)" stroke="rgb(174,172,174)" stroke-width="1" opacity="0.996078431372549" d="M 454.5 112 L 455.5 114 L 454.5 112 Z " /><path fill="rgb(174,172,174)" stroke="rgb(174,172,174)" stroke-width="1" opacity="0.996078431372549" d="M 15.5 237 L 16 239.5 L 15 239.5 L 15.5 237 Z " /><path fill="rgb(174,172,174)" stroke="rgb(174,172,174)" stroke-width="1" opacity="1" d="M 446.5 102 L 447.5 104 L 446.5 102 Z " /><path fill="rgb(174,172,174)" stroke="rgb(174,172,174)" stroke-width="1" opacity="1" d="M 448.5 105 L 467 130.5 L 475 147.5 Q 472.5 149 476 150.5 L 491 187.5 L 498 218.5 L 499 234.5 L 500 235.5 L 500 278.5 L 493 318.5 L 486 340.5 L 480.5 349 L 478 347.5 Q 476.4 332.1 466.5 325 Q 459.9 319.6 449.5 318 L 423.5 318 L 422.5 319 L 416 319 Q 417.3 325.5 413.5 328 L 411 326.5 L 406.5 320 Q 401.8 316.2 391.5 318 Q 390.2 320.3 385.5 319 L 384 320.5 L 380 331 L 378 331.5 L 378.5 333 L 373 329.5 L 365.5 320 Q 360.8 316.2 350.5 318 L 349.5 319 L 343 319 L 343 326.5 L 342 327.5 L 342 374.5 L 345 381 L 351.5 384 L 356.5 384 Q 362.6 382.6 365 377.5 L 368.5 370 L 379.5 371 L 383.5 370 L 386 372.5 L 388 378.5 L 392.5 383 L 401.5 384 L 409 379.5 L 412.5 374 L 415 375.5 L 419.5 382 L 423.5 384 L 449.5 384 L 460.5 380 L 465 380 L 462 388.5 L 450 405.5 L 418.5 439 Q 386.1 468.1 341.5 485 L 322.5 491 L 294.5 497 L 277.5 498 L 276.5 499 L 240.5 499 L 239.5 498 L 230.5 498 L 229.5 497 L 216.5 496 L 187.5 489 Q 162.1 480.9 140.5 469 Q 103 447.5 76 415.5 Q 63.3 402.2 55 386 Q 52.3 387.1 53 384.5 L 43 370.5 L 29 337.5 L 30 337.5 L 39 355.5 L 45.5 362 L 60.5 351 L 79.5 340 L 106.5 326 L 127.5 317 L 182 370.5 L 182 295.5 L 183.5 294 L 197 289 Q 199.1 304.1 207 314.5 L 261.5 369 Q 265.8 372.7 275.5 371 L 282.5 367 L 332 317.5 Q 336.5 313 335 302.5 L 332 296.5 L 284 248.5 L 295 242 L 292 237.5 L 298 242.5 L 351.5 297 L 434 215.5 Q 436.3 208.8 429.5 211 L 428.5 212 L 402.5 214 L 393.5 216 L 385.5 216 L 384.5 217 L 376.5 217 L 375.5 218 L 367.5 218 L 366.5 219 L 358.5 219 L 349.5 221 L 324.5 223 L 324.5 222 Q 346.6 209.6 365.5 194 L 373.5 190 L 442.5 138 L 447 136 L 448.5 133 L 457 126.5 L 456 118.5 L 448.5 105 Z " /><path fill="rgb(174,172,174)" stroke="rgb(174,172,174)" stroke-width="1" opacity="1" d="M 268.5 233 L 278.5 244 L 268.5 233 Z " /><path fill="rgb(174,172,174)" stroke="rgb(174,172,174)" stroke-width="1" opacity="1" d="M 457.5 323 L 458.5 325 L 457.5 323 Z " /><path fill="rgb(174,172,174)" stroke="rgb(174,172,174)" stroke-width="1" opacity="1" d="M 442.5 342 Q 448.3 341.2 450 344.5 L 452 352.5 L 451 355.5 L 451.5 357 L 450 356.5 L 447.5 360 L 444.5 361 L 441 358.5 L 440 346.5 L 442.5 342 Z " /></svg>