<svg width="500" height="500" version="1.1" xmlns="http://www.w3.org/2000/svg" desc="Created with imagetracer.js version 1.2.6" ><path fill="rgb(238,238,238)" stroke="rgb(238,238,238)" stroke-width="1" opacity="1" d="M 251 93 Q 261.3 91.4 265 97.5 L 266 106.5 L 261.5 114 L 259.5 115 L 250 115 L 251 93 Z M 253 95 L 253 109 L 252 110 L 252 113 L 260 113 L 262 111 L 264 105 L 263 99 Q 260 94 253 95 Z " /><path fill="rgb(238,238,238)" stroke="rgb(238,238,238)" stroke-width="1" opacity="1" d="M 236 94 Q 239.8 93 241 95.5 L 248 115 L 245 113.5 L 244 109 L 235.5 109 L 235 110.5 L 232.5 116 Q 229.9 116.8 231 113.5 L 236 94 Z M 239 97 L 236 104 L 236 107 L 242 107 L 239 97 Z " /><path fill="rgb(238,238,238)" stroke="rgb(238,238,238)" stroke-width="1" opacity="1" d="M 222 95 Q 226.1 93.3 225 97.5 L 229 115.5 Q 227.5 118.5 226 115.5 L 223.5 101 L 222 111 L 219 109.5 L 215.5 103 L 215 106.5 L 217 119 Q 213.7 120.3 215 115.5 L 211 98.5 L 215 97 L 219.5 106 L 221 104.5 L 222 95 Z " /><path fill="rgb(238,238,238)" stroke="rgb(238,238,238)" stroke-width="1" opacity="1" d="M 204.5 99 L 207 102.5 L 212 120 Q 207.9 121.7 209 117.5 L 204.5 105 L 204 115 L 199 111.5 L 197.5 109 L 197 111.5 L 201 122.5 Q 199.5 125.5 198 122.5 L 192 103.5 L 195.5 103 L 201.5 111 L 202 102.5 L 204.5 99 Z " /><path fill="rgb(238,238,238)" stroke="rgb(238,238,238)" stroke-width="1" opacity="1" d="M 296.5 100 L 299 101.5 L 298.5 124 L 297 122.5 L 297 116 L 288 114 L 284.5 119 Q 282.3 119.8 283 117.5 L 296.5 100 Z M 297 103 L 290 112 L 297 114 L 297 103 Z " /><path fill="rgb(238,238,238)" stroke="rgb(238,238,238)" stroke-width="1" opacity="1" d="M 311.5 106 Q 317.7 105.3 319 109.5 L 319.5 111 L 322 110 L 319.5 116 L 315.5 109 L 312.5 108 L 310 109 L 310 113.5 Q 316.1 115.9 317 123.5 L 313.5 128 Q 305 129.5 303.5 124 L 301 125 L 303.5 118 L 306 125 L 312.5 126 Q 315 125 314 120.5 Q 307.9 118 307 110.5 L 309.5 107 L 311.5 106 Z " /><path fill="rgb(238,238,238)" stroke="rgb(238,238,238)" stroke-width="1" opacity="1" d="M 181.5 108 L 197 124.5 L 195.5 126 L 190.5 121 L 189.5 122 L 183 124 L 184 130.5 L 181 132 L 179 109 L 181.5 108 Z M 182 112 Q 183 114 182 121 L 184 122 L 189 120 L 185 115 L 182 112 Z " /><path fill="rgb(238,238,238)" stroke="rgb(238,238,238)" stroke-width="1" opacity="1" d="M 328.5 113 L 338 120.5 Q 338.8 126.3 335.5 128 L 330.5 129 L 329 128.5 L 328.5 139 L 327 137.5 Q 328.1 128.9 324.5 125 L 322 126.5 L 318.5 132 Q 316.3 132.8 317 130.5 L 328.5 113 Z M 330 116 L 325 124 L 332 127 L 335 126 L 336 124 L 335 119 L 330 116 Z " /><path fill="rgb(238,238,238)" stroke="rgb(238,238,238)" stroke-width="1" opacity="1" d="M 167 115 L 170 116.5 L 180 132.5 Q 178 136 176 131.5 L 172.5 126 L 165 130 L 170 140 L 166 137.5 L 157 121 L 161 123.5 L 164.5 129 L 171 125 L 167 115 Z " /><path fill="rgb(238,238,238)" stroke="rgb(238,238,238)" stroke-width="1" opacity="1" d="M 151.5 126 L 162 138.5 L 163 143.5 L 159.5 148 L 154.5 149 L 147 142.5 L 141 134.5 L 142.5 133 L 146 136.5 L 153.5 146 L 156.5 147 L 160 144.5 L 160 139.5 L 150 127.5 L 151.5 126 Z " /><path fill="rgb(238,238,238)" stroke="rgb(238,238,238)" stroke-width="1" opacity="1" d="M 346.5 126 L 348.5 126 L 354 130 Q 355.1 132.7 352.5 132 L 349 131 L 340 144.5 Q 343.8 146.3 340.5 148 L 334 142.5 Q 333.3 140.3 335.5 141 L 338 142.5 L 348 128.5 L 346.5 126 Z " /><path fill="rgb(238,238,238)" stroke="rgb(238,238,238)" stroke-width="1" opacity="1" d="M 359.5 137 L 363 138.5 L 357 155.5 L 368.5 145 L 370 146.5 L 354.5 161 L 353 157.5 L 359 142.5 L 350.5 150 L 346.5 153 L 345 151.5 L 359.5 137 Z " /><path fill="rgb(238,238,238)" stroke="rgb(238,238,238)" stroke-width="1" opacity="1" d="M 136.5 139 L 152 153.5 L 149.5 155 L 139 145.5 L 143 153.5 L 139.5 154 L 133.5 151 L 143 161.5 Q 143.8 163.8 141.5 163 L 127 148.5 L 128.5 147 L 138.5 151 L 139 149.5 L 135 140.5 L 136.5 139 Z " /><path fill="rgb(238,238,238)" stroke="rgb(238,238,238)" stroke-width="1" opacity="1" d="M 114.5 159 L 123 165.5 L 108 179.5 L 90 203.5 L 76 233.5 L 72 247.5 L 70 265.5 L 69 266.5 L 69 291.5 L 70 292.5 L 70 300.5 L 72 306.5 L 72 311.5 L 77 328.5 L 84 344.5 Q 98.3 372.2 120.5 392 L 147.5 412 L 177.5 427 L 212.5 437 L 218.5 437 L 226.5 439 L 240.5 439 L 241.5 440 L 258.5 440 L 259.5 439 L 280.5 438 L 300.5 434 L 331.5 423 Q 367.3 406.8 392 379.5 L 410 355.5 L 423 328.5 L 428 311.5 L 428 306.5 L 430 299.5 Q 428.2 293.2 431 291.5 L 431 266.5 L 426 240.5 L 416 214.5 Q 401.7 186.8 379.5 167 Q 377.3 167.8 378 165.5 L 385.5 159 Q 413.2 182.8 429 218.5 L 436 238.5 L 440 257.5 L 441 292.5 L 435 324.5 Q 429 343 420 358.5 Q 405 383.5 383.5 402 Q 357.7 424.7 322.5 438 L 298.5 445 L 275.5 449 L 265.5 449 L 264.5 450 L 235.5 450 L 234.5 449 L 224.5 449 L 201.5 445 L 183.5 440 L 165.5 433 Q 125.2 414.8 98 383.5 Q 77.4 360.1 66 327.5 L 62 312.5 L 60 294.5 L 59 293.5 L 59 265.5 L 65 234.5 L 79 202.5 Q 93.3 177.3 114.5 159 Z " /><path fill="rgb(238,238,238)" stroke="rgb(238,238,238)" stroke-width="1" opacity="1" d="M 119 216 L 145.5 216 L 148 218.5 L 198 322 Q 200.7 323.1 200 320.5 L 249.5 216 L 275.5 216 L 276 217.5 L 277 218.5 L 277 324.5 L 275.5 326 L 249 326 L 248.5 281 L 212 355 L 186.5 355 L 186 353.5 L 147.5 279 L 147 359.5 L 145.5 361 L 120.5 361 L 119 359.5 L 119 216 Z " /><path fill="rgb(238,238,238)" stroke="rgb(238,238,238)" stroke-width="1" opacity="1" d="M 340.5 216 Q 343.8 214.9 343 217.5 L 397 354.5 L 398 361 L 370.5 361 L 370 359.5 L 341.5 280 L 335 295.5 L 316 352.5 L 311.5 361 L 285.5 361 L 284 359.5 L 336 224.5 L 340.5 216 Z " /><path fill="rgb(238,238,238)" stroke="rgb(238,238,238)" stroke-width="1" opacity="1" d="M 261.5 370 L 272 377.5 L 269 390 L 254.5 390 L 254 387.5 L 251 377.5 L 261.5 370 Z " /><path fill="rgb(0,0,0)" stroke="rgb(0,0,0)" stroke-width="1" opacity="1" d="M 0 0 L 500 0 L 500 500 L 0 500 L 0 0 Z M 251 93 L 250 115 L 260 115 L 262 114 L 266 107 L 265 98 Q 261 91 251 93 Z M 236 94 L 231 114 Q 230 117 233 116 L 235 111 L 236 109 L 244 109 L 245 114 L 248 115 L 241 96 Q 240 93 236 94 Z M 222 95 L 221 105 L 220 106 L 215 97 L 211 99 L 215 116 Q 214 120 217 119 L 215 107 L 216 103 L 219 110 L 222 111 L 224 101 L 226 116 Q 228 119 229 116 L 225 98 Q 226 93 222 95 Z M 205 99 L 202 103 L 202 111 L 196 103 L 192 104 L 198 123 Q 200 126 201 123 L 197 110 L 197 108 L 199 112 L 204 115 L 205 105 L 209 118 Q 208 122 212 120 L 207 103 L 205 99 Z M 297 100 L 283 118 Q 282 120 285 119 L 288 114 L 297 116 L 297 123 L 299 124 L 299 102 L 297 100 Z M 312 106 L 310 107 L 307 111 Q 308 118 314 121 Q 315 125 313 126 L 306 125 L 304 118 L 301 125 L 304 124 Q 305 130 314 128 L 317 124 Q 316 116 310 114 L 310 109 L 313 108 L 316 109 L 320 116 L 322 110 L 320 111 L 319 110 Q 318 105 312 106 Z M 182 108 L 179 109 L 181 132 L 184 131 L 183 124 L 190 122 L 191 121 L 196 126 L 197 125 L 182 108 Z M 329 113 L 317 131 Q 316 133 319 132 L 322 127 L 325 125 Q 328 129 327 138 L 329 139 L 329 129 L 331 129 L 336 128 Q 339 126 338 121 L 329 113 Z M 167 115 L 171 125 L 165 129 L 161 124 L 157 121 L 166 138 L 170 140 L 165 130 L 173 126 L 176 132 Q 178 136 180 133 L 170 117 L 167 115 Z M 152 126 L 150 128 L 160 140 L 160 145 L 157 147 L 154 146 L 146 137 L 143 133 L 141 135 L 147 143 L 155 149 L 160 148 L 163 144 L 162 139 L 152 126 Z M 347 126 L 348 129 L 338 143 L 336 141 Q 333 140 334 143 L 341 148 Q 344 146 340 145 L 349 131 L 353 132 Q 355 133 354 130 L 349 126 L 347 126 Z M 360 137 L 345 152 L 347 153 L 351 150 L 359 143 L 353 158 L 355 161 L 370 147 L 369 145 L 357 156 L 363 139 L 360 137 Z M 137 139 L 135 141 L 139 150 L 139 151 L 129 147 L 127 149 L 142 163 Q 144 164 143 162 L 133 150 L 140 154 L 143 154 L 138 145 L 150 155 L 152 154 L 137 139 Z M 115 159 Q 93 177 79 203 L 65 235 L 59 266 L 59 294 L 60 295 L 62 313 L 66 328 Q 77 360 98 384 Q 125 415 166 433 L 184 440 L 202 445 L 225 449 L 235 449 L 236 450 L 265 450 L 266 449 L 276 449 L 299 445 L 323 438 Q 358 425 384 402 Q 405 384 420 359 Q 429 343 435 325 L 441 293 L 440 258 L 436 239 L 429 219 Q 413 183 386 159 L 378 166 Q 377 168 380 167 Q 402 187 416 215 L 426 241 L 431 267 L 431 292 Q 428 293 430 300 L 428 307 L 428 312 L 423 329 L 410 356 L 392 380 Q 367 407 332 423 L 301 434 L 281 438 L 260 439 L 259 440 L 242 440 L 241 439 L 227 439 L 219 437 L 213 437 L 178 427 L 148 412 L 121 392 Q 98 372 84 345 L 77 329 L 72 312 L 72 307 L 70 301 L 70 293 L 69 292 L 69 267 L 70 266 L 72 248 L 76 234 L 90 204 L 108 180 L 123 166 L 115 159 Z M 119 216 L 119 360 L 121 361 L 146 361 L 147 360 L 148 279 L 186 354 L 187 355 L 212 355 L 249 281 L 249 326 L 276 326 L 277 325 L 277 219 L 276 218 L 276 216 L 250 216 L 200 321 Q 201 323 198 322 L 148 219 L 146 216 L 119 216 Z M 341 216 L 336 225 L 284 360 L 286 361 L 312 361 L 316 353 L 335 296 L 342 280 L 370 360 L 371 361 L 398 361 L 397 355 L 343 218 Q 344 215 341 216 Z M 262 370 L 251 378 L 254 388 L 255 390 L 269 390 L 272 378 L 262 370 Z " /><path fill="rgb(0,0,0)" stroke="rgb(0,0,0)" stroke-width="1" opacity="1" d="M 253 95 Q 260.5 93.7 263 98.5 L 264 104.5 L 262 110.5 L 259.5 113 L 252 113 L 252 109.5 L 253 108.5 L 253 95 Z " /><path fill="rgb(0,0,0)" stroke="rgb(0,0,0)" stroke-width="1" opacity="1" d="M 238.5 97 L 242 107 L 236 107 L 236 103.5 L 238.5 97 Z " /><path fill="rgb(0,0,0)" stroke="rgb(0,0,0)" stroke-width="1" opacity="1" d="M 296.5 103 L 297 114 L 290 111.5 L 296.5 103 Z " /><path fill="rgb(0,0,0)" stroke="rgb(0,0,0)" stroke-width="1" opacity="1" d="M 181.5 112 L 185 114.5 L 189 119.5 L 183.5 122 L 182 120.5 Q 182.6 113.8 181.5 112 Z " /><path fill="rgb(0,0,0)" stroke="rgb(0,0,0)" stroke-width="1" opacity="1" d="M 329.5 116 L 335 119 L 336 123.5 L 335 126 L 331.5 127 L 325 124 L 329.5 116 Z " /></svg>