<svg width="128" height="128" version="1.1" xmlns="http://www.w3.org/2000/svg" desc="Created with imagetracer.js version 1.2.6" ><path fill="rgb(0,0,0)" stroke="rgb(0,0,0)" stroke-width="1" opacity="0" d="M 0 0 L 128 0 L 128 128 L 0 128 L 0 0 Z M 36 24 L 35 76 L 39 83 L 62 103 L 66 102 L 87 81 L 86 75 L 36 24 Z M 5 26 L 5 71 L 7 72 L 26 53 L 27 47 L 7 26 L 5 26 Z M 114 44 L 113 45 L 104 45 L 103 46 L 68 49 L 68 51 L 92 74 L 94 74 L 123 45 L 114 44 Z M 29 56 L 9 76 L 9 82 L 29 101 L 30 101 L 30 57 L 29 56 Z " /><path fill="rgb(146,163,172)" stroke="rgb(146,163,172)" stroke-width="1" opacity="0.4470588235294118" d="M 35.5 24 L 86 74.5 L 87 80.5 L 65 101.5 L 86 80.5 L 86 76.5 L 36.5 26 Q 33.7 26.7 35.5 24 Z " /><path fill="rgb(146,163,172)" stroke="rgb(146,163,172)" stroke-width="1" opacity="0.4470588235294118" d="M 5 26 L 6.5 26 L 27 46.5 L 26 52.5 L 6.5 72 L 5 70.5 L 5 26 Z M 7 27 L 6 70 L 26 51 L 26 47 L 7 27 Z " /><path fill="rgb(146,163,172)" stroke="rgb(146,163,172)" stroke-width="1" opacity="0.4470588235294118" d="M 113.5 44 L 120 44.5 L 113.5 45 L 113.5 44 Z " /><path fill="rgb(146,163,172)" stroke="rgb(146,163,172)" stroke-width="1" opacity="0.4470588235294118" d="M 121 44 L 123 44.5 L 93.5 74 L 91.5 74 L 68 50.5 L 68 49 L 72 49.5 L 69 50.5 L 91.5 73 L 93.5 73 L 121 45.5 L 121 44 Z " /><path fill="rgb(146,163,172)" stroke="rgb(146,163,172)" stroke-width="1" opacity="0.4470588235294118" d="M 103.5 45 L 110 45.5 L 103.5 46 L 103.5 45 Z " /><path fill="rgb(146,163,172)" stroke="rgb(146,163,172)" stroke-width="1" opacity="0.4470588235294118" d="M 94.5 46 L 101 46.5 L 94.5 47 L 94.5 46 Z " /><path fill="rgb(146,163,172)" stroke="rgb(146,163,172)" stroke-width="1" opacity="0.4470588235294118" d="M 84.5 47 L 91 47.5 L 84.5 48 L 84.5 47 Z " /><path fill="rgb(146,163,172)" stroke="rgb(146,163,172)" stroke-width="1" opacity="0.4470588235294118" d="M 75.5 48 L 82 48.5 L 75.5 49 L 75.5 48 Z " /><path fill="rgb(146,163,172)" stroke="rgb(146,163,172)" stroke-width="1" opacity="0.4470588235294118" d="M 28.5 56 L 30 56.5 L 10 75.5 L 9.5 77 L 9 75.5 L 28.5 56 Z " /><path fill="rgb(146,163,172)" stroke="rgb(146,163,172)" stroke-width="1" opacity="0.4470588235294118" d="M 35.5 73 L 36 75.5 L 35 75.5 L 35.5 73 Z " /><path fill="rgb(146,163,172)" stroke="rgb(146,163,172)" stroke-width="1" opacity="0.4470588235294118" d="M 36.5 77 L 60 101.5 L 53.5 96 L 39 82.5 L 36 78.5 L 36.5 77 Z " /><path fill="rgb(146,163,172)" stroke="rgb(146,163,172)" stroke-width="1" opacity="0.4470588235294118" d="M 9.5 80 L 28.5 100 L 30 100.5 L 28.5 101 L 9 81.5 L 9.5 80 Z " /><path fill="rgb(146,163,172)" stroke="rgb(146,163,172)" stroke-width="1" opacity="0.4470588235294118" d="M 61.5 102 L 64 102.5 L 61.5 103 L 61.5 102 Z " /><path fill="rgb(143,163,173)" stroke="rgb(143,163,173)" stroke-width="1" opacity="0.996078431372549" d="M 35.5 26 L 36 29.5 L 35 29.5 L 35.5 26 Z " /><path fill="rgb(143,163,173)" stroke="rgb(143,163,173)" stroke-width="1" opacity="0.996078431372549" d="M 35.5 36 L 36 39.5 L 35 39.5 L 35.5 36 Z " /><path fill="rgb(143,163,173)" stroke="rgb(143,163,173)" stroke-width="1" opacity="0.996078431372549" d="M 35.5 43 L 36 62.5 L 35 62.5 L 35.5 43 Z " /><path fill="rgb(143,163,173)" stroke="rgb(143,163,173)" stroke-width="1" opacity="0.996078431372549" d="M 120.5 44 L 121 45.5 L 93 72.5 L 120.5 44 Z " /><path fill="rgb(143,163,173)" stroke="rgb(143,163,173)" stroke-width="1" opacity="0.996078431372549" d="M 55.5 45 L 61.5 52 L 55.5 45 Z " /><path fill="rgb(143,163,173)" stroke="rgb(143,163,173)" stroke-width="1" opacity="0.996078431372549" d="M 110.5 45 L 113 45.5 L 110.5 46 L 110.5 45 Z " /><path fill="rgb(143,163,173)" stroke="rgb(143,163,173)" stroke-width="1" opacity="0.996078431372549" d="M 82.5 48 L 85 48.5 L 82.5 49 L 82.5 48 Z " /><path fill="rgb(143,163,173)" stroke="rgb(143,163,173)" stroke-width="1" opacity="0.996078431372549" d="M 72.5 49 L 75 49.5 L 72.5 50 L 72.5 49 Z " /><path fill="rgb(143,163,173)" stroke="rgb(143,163,173)" stroke-width="1" opacity="0.996078431372549" d="M 69.5 50 L 91.5 73 L 69.5 50 Z " /><path fill="rgb(143,163,173)" stroke="rgb(143,163,173)" stroke-width="1" opacity="0.996078431372549" d="M 28.5 57 L 10.5 76 L 28.5 57 Z " /><path fill="rgb(143,163,173)" stroke="rgb(143,163,173)" stroke-width="1" opacity="0.996078431372549" d="M 35.5 67 L 36 71.5 L 35 71.5 L 35.5 67 Z " /><path fill="rgb(143,163,173)" stroke="rgb(143,163,173)" stroke-width="1" opacity="0.996078431372549" d="M 81.5 71 L 84.5 75 L 81.5 71 Z " /><path fill="rgb(143,163,173)" stroke="rgb(143,163,173)" stroke-width="1" opacity="0.996078431372549" d="M 9.5 77 L 10 79.5 L 9 79.5 L 9.5 77 Z " /><path fill="rgb(143,163,173)" stroke="rgb(143,163,173)" stroke-width="1" opacity="0.996078431372549" d="M 10.5 81 L 28.5 100 L 10.5 81 Z " /><path fill="rgb(143,163,173)" stroke="rgb(143,163,173)" stroke-width="1" opacity="0.996078431372549" d="M 65.5 100 L 64.5 102 L 65.5 100 Z " /><path fill="rgb(144,164,174)" stroke="rgb(144,164,174)" stroke-width="1" opacity="1" d="M 36.5 26 L 52 41.5 L 52 43 L 55 44.5 L 61.5 52 L 65 54.5 L 65 56 L 67 56 Q 65.9 58.7 68.5 58 L 79 68.5 L 79 70 Q 81.7 68.9 81 71.5 L 86 76.5 L 86 79.5 L 66.5 100 L 62.5 102 L 60 101.5 L 60 100 L 58 100 Q 59.1 97.3 56.5 98 L 39 80.5 L 39 79 Q 36 80.3 37 76.5 L 35 72.5 L 36 67.5 L 36 65.5 L 35 63.5 L 36 62.5 L 36 43.5 L 36 39.5 L 35 35.5 L 36 33.5 L 36 29.5 L 36.5 26 Z " /><path fill="rgb(144,164,174)" stroke="rgb(144,164,174)" stroke-width="1" opacity="1" d="M 6.5 27 L 25 45.5 L 26 50.5 L 6 69.5 L 6.5 27 Z " /><path fill="rgb(144,164,174)" stroke="rgb(144,164,174)" stroke-width="1" opacity="1" d="M 113.5 45 L 120 45.5 L 92.5 73 L 70 50.5 Q 75.5 48 84.5 49 L 91.5 47 L 93.5 48 L 94.5 47 L 112.5 46 L 113.5 45 Z " /><path fill="rgb(144,164,174)" stroke="rgb(144,164,174)" stroke-width="1" opacity="1" d="M 29.5 57 L 30 99.5 L 10 80.5 L 10 76.5 L 29.5 57 Z " /></svg>